<svg width="198" height="40" viewBox="0 0 198 40" fill="none" xmlns="http://www.w3.org/2000/svg">
<g filter="url(#filter0_d_6_4)">
<path d="M4.4 3.36C5.6 2.93333 6.97333 2.56 8.52 2.24C10.0667 1.92 11.76 1.76 13.6 1.76C15.52 1.76 17.1333 2 18.44 2.48C19.7467 2.93333 20.7867 3.54666 21.56 4.32C22.36 5.09333 22.9333 5.97333 23.28 6.96C23.6267 7.94667 23.8 8.96 23.8 10C23.8 11.6267 23.4667 13.08 22.8 14.36C22.16 15.64 21.2667 16.72 20.12 17.6C19 18.48 17.68 19.16 16.16 19.64C14.64 20.0933 13 20.32 11.24 20.32C10.5467 20.32 9.89333 20.2933 9.28 20.24C8.66667 20.1867 8.13333 20.12 7.68 20.04V30.64C7.25333 30.88 6.74667 31.04 6.16 31.12C5.6 31.2267 5.01333 31.28 4.4 31.28V3.36ZM12.48 3.6C11.52 3.6 10.64 3.65333 9.84 3.76C9.04 3.86666 8.32 3.98666 7.68 4.12V17.36C8.26667 17.68 8.94667 17.9467 9.72 18.16C10.52 18.3733 11.5067 18.48 12.68 18.48C15 18.48 16.84 17.8667 18.2 16.64C19.56 15.4133 20.24 13.64 20.24 11.32C20.24 10.2533 20.0933 9.25333 19.8 8.32C19.5067 7.38666 19.04 6.57333 18.4 5.88C17.76 5.16 16.9467 4.6 15.96 4.2C15 3.8 13.84 3.6 12.48 3.6ZM29.815 20.68C29.895 22.12 30.1483 23.3867 30.575 24.48C31.0283 25.5467 31.6017 26.44 32.295 27.16C32.9883 27.88 33.7883 28.4267 34.695 28.8C35.6283 29.1467 36.615 29.32 37.655 29.32C38.9617 29.32 40.0817 29.1467 41.015 28.8C41.975 28.4533 42.8417 27.9067 43.615 27.16C43.9883 27.24 44.2417 27.4933 44.375 27.92C44.1883 28.2133 43.8817 28.5733 43.455 29C43.055 29.4267 42.5083 29.84 41.815 30.24C41.1483 30.64 40.335 30.9733 39.375 31.24C38.4417 31.5333 37.3483 31.68 36.095 31.68C34.7617 31.68 33.5217 31.44 32.375 30.96C31.2283 30.48 30.2283 29.7867 29.375 28.88C28.5217 27.9733 27.8417 26.8533 27.335 25.52C26.855 24.1867 26.615 22.68 26.615 21C26.615 19.4533 26.8817 18 27.415 16.64C27.9483 15.2533 28.6683 14.0533 29.575 13.04C30.5083 12.0267 31.5883 11.2267 32.815 10.64C34.0683 10.0267 35.4017 9.72 36.815 9.72C38.335 9.72 39.5883 9.97333 40.575 10.48C41.5617 10.9867 42.335 11.64 42.895 12.44C43.4817 13.24 43.8817 14.12 44.095 15.08C44.335 16.04 44.455 16.9733 44.455 17.88C44.2417 18.2 43.9483 18.48 43.575 18.72C43.2283 18.96 42.8417 19.1467 42.415 19.28L29.815 20.68ZM35.775 11.52C34.9483 11.52 34.175 11.6667 33.455 11.96C32.735 12.2533 32.1083 12.7067 31.575 13.32C31.0417 13.9333 30.6017 14.72 30.255 15.68C29.935 16.64 29.7617 17.8 29.735 19.16L41.015 18C41.0417 17.8667 41.055 17.7333 41.055 17.6C41.055 17.4667 41.055 17.3467 41.055 17.24C41.055 16.4133 40.9483 15.6533 40.735 14.96C40.5217 14.2667 40.1883 13.6667 39.735 13.16C39.3083 12.6533 38.7617 12.2533 38.095 11.96C37.455 11.6667 36.6817 11.52 35.775 11.52ZM67.9216 29.52C67.8416 29.6533 67.7082 29.8133 67.5216 30C67.3616 30.1867 67.1749 30.3733 66.9616 30.56C66.7482 30.72 66.5082 30.8667 66.2416 31C66.0016 31.1333 65.7749 31.2267 65.5616 31.28C64.7082 31.2267 63.9882 30.9067 63.4016 30.32C62.8149 29.7067 62.4949 28.9067 62.4416 27.92C62.2282 28.32 61.9082 28.7467 61.4816 29.2C61.0549 29.6267 60.5349 30.0267 59.9216 30.4C59.3349 30.7467 58.6549 31.0267 57.8816 31.24C57.1082 31.48 56.2682 31.6 55.3616 31.6C53.4682 31.6 51.9616 31.12 50.8416 30.16C49.7482 29.2 49.2016 27.92 49.2016 26.32C49.2016 24.6667 49.8282 23.28 51.0816 22.16C52.3349 21.04 54.4816 20.2133 57.5216 19.68L62.2816 18.84V17.28C62.2816 15.36 61.8282 13.8933 60.9216 12.88C60.0416 11.8667 58.7216 11.36 56.9616 11.36C55.8682 11.36 54.9349 11.64 54.1616 12.2C53.4149 12.7333 53.0416 13.5333 53.0416 14.6C53.0416 15.08 53.2016 15.5067 53.5216 15.88C53.2816 16.2 52.8949 16.4933 52.3616 16.76C51.8282 17.0267 51.2816 17.1867 50.7216 17.24C50.5882 17.1067 50.4282 16.9067 50.2416 16.64C50.0549 16.3733 49.9616 16.0133 49.9616 15.56C49.9616 14.7333 50.2016 13.96 50.6816 13.24C51.1616 12.52 51.7882 11.9067 52.5616 11.4C53.3349 10.8667 54.2282 10.4533 55.2416 10.16C56.2549 9.86667 57.3082 9.72 58.4016 9.72C60.9616 9.72 62.7749 10.3067 63.8416 11.48C64.9082 12.6267 65.4416 14.24 65.4416 16.32V26.36C65.4416 27.4533 65.6816 28.2133 66.1616 28.64C66.6416 29.04 67.2016 29.28 67.8416 29.36L67.9216 29.52ZM56.6416 29.48C58.0282 29.48 59.2016 29.16 60.1616 28.52C61.1482 27.88 61.8549 27.0533 62.2816 26.04V20.28L56.9216 21.24C55.4816 21.5067 54.3749 21.96 53.6016 22.6C52.8549 23.24 52.4816 24.16 52.4816 25.36C52.4816 26.6933 52.8816 27.72 53.6816 28.44C54.5082 29.1333 55.4949 29.48 56.6416 29.48ZM89.0216 14.44C88.8616 14.7333 88.5416 15.04 88.0616 15.36C87.6082 15.68 87.0349 15.88 86.3416 15.96C86.2616 15.5067 86.1016 15.0267 85.8616 14.52C85.6482 13.9867 85.3282 13.5067 84.9016 13.08C84.4749 12.6267 83.9416 12.2667 83.3016 12C82.6616 11.7067 81.8882 11.56 80.9816 11.56C80.2349 11.56 79.4749 11.7067 78.7016 12C77.9549 12.2933 77.2749 12.7733 76.6616 13.44C76.0482 14.1067 75.5416 14.96 75.1416 16C74.7682 17.04 74.5816 18.3067 74.5816 19.8C74.5816 21.4 74.7949 22.8 75.2216 24C75.6482 25.1733 76.2216 26.16 76.9416 26.96C77.6616 27.7333 78.4882 28.32 79.4216 28.72C80.3816 29.0933 81.3816 29.28 82.4216 29.28C83.7816 29.28 84.9282 29.08 85.8616 28.68C86.8216 28.2533 87.6349 27.6533 88.3016 26.88C88.4616 26.9067 88.6216 27 88.7816 27.16C88.9416 27.32 89.0482 27.4667 89.1016 27.6C88.8882 27.9733 88.5549 28.4 88.1016 28.88C87.6749 29.3333 87.1282 29.76 86.4616 30.16C85.7949 30.56 85.0216 30.8933 84.1416 31.16C83.2616 31.4533 82.2616 31.6 81.1416 31.6C79.8082 31.6 78.5416 31.3733 77.3416 30.92C76.1682 30.4667 75.1282 29.7867 74.2216 28.88C73.3416 27.9733 72.6349 26.8667 72.1016 25.56C71.5949 24.2533 71.3416 22.7333 71.3416 21C71.3416 19.48 71.6216 18.0533 72.1816 16.72C72.7416 15.36 73.5016 14.1733 74.4616 13.16C75.4482 12.12 76.6082 11.3067 77.9416 10.72C79.2749 10.1067 80.7149 9.8 82.2616 9.8C83.5416 9.8 84.6082 9.98667 85.4616 10.36C86.3149 10.7067 86.9949 11.1333 87.5016 11.64C88.0349 12.12 88.4216 12.6267 88.6616 13.16C88.9016 13.6933 89.0216 14.12 89.0216 14.44ZM95.9869 20.68C96.0669 22.12 96.3202 23.3867 96.7469 24.48C97.2002 25.5467 97.7735 26.44 98.4669 27.16C99.1602 27.88 99.9602 28.4267 100.867 28.8C101.8 29.1467 102.787 29.32 103.827 29.32C105.134 29.32 106.254 29.1467 107.187 28.8C108.147 28.4533 109.014 27.9067 109.787 27.16C110.16 27.24 110.414 27.4933 110.547 27.92C110.36 28.2133 110.054 28.5733 109.627 29C109.227 29.4267 108.68 29.84 107.987 30.24C107.32 30.64 106.507 30.9733 105.547 31.24C104.614 31.5333 103.52 31.68 102.267 31.68C100.934 31.68 99.6935 31.44 98.5469 30.96C97.4002 30.48 96.4002 29.7867 95.5469 28.88C94.6935 27.9733 94.0135 26.8533 93.5069 25.52C93.0269 24.1867 92.7869 22.68 92.7869 21C92.7869 19.4533 93.0535 18 93.5869 16.64C94.1202 15.2533 94.8402 14.0533 95.7469 13.04C96.6802 12.0267 97.7602 11.2267 98.9869 10.64C100.24 10.0267 101.574 9.72 102.987 9.72C104.507 9.72 105.76 9.97333 106.747 10.48C107.734 10.9867 108.507 11.64 109.067 12.44C109.654 13.24 110.054 14.12 110.267 15.08C110.507 16.04 110.627 16.9733 110.627 17.88C110.414 18.2 110.12 18.48 109.747 18.72C109.4 18.96 109.014 19.1467 108.587 19.28L95.9869 20.68ZM101.947 11.52C101.12 11.52 100.347 11.6667 99.6269 11.96C98.9069 12.2533 98.2802 12.7067 97.7469 13.32C97.2135 13.9333 96.7735 14.72 96.4269 15.68C96.1069 16.64 95.9335 17.8 95.9069 19.16L107.187 18C107.214 17.8667 107.227 17.7333 107.227 17.6C107.227 17.4667 107.227 17.3467 107.227 17.24C107.227 16.4133 107.12 15.6533 106.907 14.96C106.694 14.2667 106.36 13.6667 105.907 13.16C105.48 12.6533 104.934 12.2533 104.267 11.96C103.627 11.6667 102.854 11.52 101.947 11.52ZM116.573 0.799998C117.027 0.559998 117.52 0.386665 118.053 0.28C118.613 0.173333 119.173 0.119999 119.733 0.119999V30.68C119.36 30.8933 118.867 31.04 118.253 31.12C117.667 31.2267 117.107 31.28 116.573 31.28V0.799998ZM144.836 29.52C144.756 29.6533 144.622 29.8133 144.436 30C144.276 30.1867 144.089 30.3733 143.876 30.56C143.662 30.72 143.422 30.8667 143.156 31C142.916 31.1333 142.689 31.2267 142.476 31.28C141.622 31.2267 140.902 30.9067 140.316 30.32C139.729 29.7067 139.409 28.9067 139.356 27.92C139.142 28.32 138.822 28.7467 138.396 29.2C137.969 29.6267 137.449 30.0267 136.836 30.4C136.249 30.7467 135.569 31.0267 134.796 31.24C134.022 31.48 133.182 31.6 132.276 31.6C130.382 31.6 128.876 31.12 127.756 30.16C126.662 29.2 126.116 27.92 126.116 26.32C126.116 24.6667 126.742 23.28 127.996 22.16C129.249 21.04 131.396 20.2133 134.436 19.68L139.196 18.84V17.28C139.196 15.36 138.742 13.8933 137.836 12.88C136.956 11.8667 135.636 11.36 133.876 11.36C132.782 11.36 131.849 11.64 131.076 12.2C130.329 12.7333 129.956 13.5333 129.956 14.6C129.956 15.08 130.116 15.5067 130.436 15.88C130.196 16.2 129.809 16.4933 129.276 16.76C128.742 17.0267 128.196 17.1867 127.636 17.24C127.502 17.1067 127.342 16.9067 127.156 16.64C126.969 16.3733 126.876 16.0133 126.876 15.56C126.876 14.7333 127.116 13.96 127.596 13.24C128.076 12.52 128.702 11.9067 129.476 11.4C130.249 10.8667 131.142 10.4533 132.156 10.16C133.169 9.86667 134.222 9.72 135.316 9.72C137.876 9.72 139.689 10.3067 140.756 11.48C141.822 12.6267 142.356 14.24 142.356 16.32V26.36C142.356 27.4533 142.596 28.2133 143.076 28.64C143.556 29.04 144.116 29.28 144.756 29.36L144.836 29.52ZM133.556 29.48C134.942 29.48 136.116 29.16 137.076 28.52C138.062 27.88 138.769 27.0533 139.196 26.04V20.28L133.836 21.24C132.396 21.5067 131.289 21.96 130.516 22.6C129.769 23.24 129.396 24.16 129.396 25.36C129.396 26.6933 129.796 27.72 130.596 28.44C131.422 29.1333 132.409 29.48 133.556 29.48ZM164.81 18.52C164.81 16.2533 164.343 14.6 163.41 13.56C162.477 12.4933 161.157 11.96 159.45 11.96C158.837 11.96 158.223 12.08 157.61 12.32C157.023 12.5333 156.45 12.8267 155.89 13.2C155.357 13.5733 154.85 14.0133 154.37 14.52C153.89 15 153.463 15.5067 153.09 16.04V30.68C152.717 30.8933 152.223 31.04 151.61 31.12C151.023 31.2267 150.463 31.28 149.93 31.28V10.8C150.81 10.3467 151.797 10.12 152.89 10.12V14.08C153.237 13.6267 153.677 13.1467 154.21 12.64C154.77 12.1067 155.383 11.6267 156.05 11.2C156.743 10.7733 157.49 10.4267 158.29 10.16C159.117 9.86667 159.997 9.72 160.93 9.72C163.09 9.72 164.797 10.3733 166.05 11.68C167.33 12.9867 167.97 14.8533 167.97 17.28V30.68C167.597 30.8933 167.103 31.04 166.49 31.12C165.903 31.2267 165.343 31.28 164.81 31.28V18.52ZM190.043 28.24C189.749 28.64 189.389 29.04 188.963 29.44C188.536 29.84 188.016 30.2 187.403 30.52C186.816 30.84 186.136 31.1067 185.363 31.32C184.589 31.5333 183.723 31.64 182.763 31.64C181.589 31.64 180.469 31.4267 179.403 31C178.336 30.5733 177.376 29.9467 176.523 29.12C175.696 28.2667 175.029 27.2267 174.523 26C174.043 24.7467 173.803 23.3067 173.803 21.68C173.803 20.08 174.096 18.56 174.683 17.12C175.296 15.6533 176.123 14.3733 177.163 13.28C178.203 12.1867 179.416 11.32 180.803 10.68C182.216 10.04 183.723 9.72 185.323 9.72C186.389 9.72 187.296 9.85333 188.043 10.12C188.816 10.36 189.483 10.6667 190.043 11.04V0.799998C190.496 0.559998 190.989 0.386665 191.523 0.28C192.083 0.173333 192.643 0.119999 193.203 0.119999V30.68C192.829 30.8933 192.336 31.04 191.723 31.12C191.136 31.2267 190.576 31.28 190.043 31.28V28.24ZM184.243 29.36C185.736 29.36 186.963 29.0133 187.923 28.32C188.909 27.6 189.616 26.7733 190.043 25.84V15C189.829 14.5733 189.549 14.16 189.203 13.76C188.883 13.3333 188.483 12.96 188.003 12.64C187.523 12.2933 186.963 12.0267 186.323 11.84C185.709 11.6267 185.016 11.52 184.243 11.52C183.363 11.52 182.496 11.6933 181.643 12.04C180.789 12.3867 180.016 12.92 179.323 13.64C178.656 14.3333 178.109 15.2267 177.683 16.32C177.283 17.4133 177.083 18.6933 177.083 20.16C177.083 21.84 177.296 23.2667 177.723 24.44C178.176 25.5867 178.736 26.5333 179.403 27.28C180.096 28 180.869 28.5333 181.723 28.88C182.576 29.2 183.416 29.36 184.243 29.36Z" fill="white"/>
</g>
<defs>
<filter id="filter0_d_6_4" x="0.399994" y="0.119995" width="196.803" height="39.5601" filterUnits="userSpaceOnUse" color-interpolation-filters="sRGB">
<feFlood flood-opacity="0" result="BackgroundImageFix"/>
<feColorMatrix in="SourceAlpha" type="matrix" values="0 0 0 0 0 0 0 0 0 0 0 0 0 0 0 0 0 0 127 0" result="hardAlpha"/>
<feOffset dy="4"/>
<feGaussianBlur stdDeviation="2"/>
<feComposite in2="hardAlpha" operator="out"/>
<feColorMatrix type="matrix" values="0 0 0 0 0 0 0 0 0 0 0 0 0 0 0 0 0 0 0.5 0"/>
<feBlend mode="normal" in2="BackgroundImageFix" result="effect1_dropShadow_6_4"/>
<feBlend mode="normal" in="SourceGraphic" in2="effect1_dropShadow_6_4" result="shape"/>
</filter>
</defs>
</svg>
